<mxfile host="Electron" modified="2024-02-20T15:31:18.491Z" agent="Mozilla/5.0 (Macintosh; Intel Mac OS X 10_15_7) AppleWebKit/537.36 (KHTML, like Gecko) draw.io/21.6.8 Chrome/114.0.5735.289 Electron/25.5.0 Safari/537.36" etag="Mxkuo_ZVOeqdJg57b5cB" version="21.6.8" type="device">
  <diagram name="Page-1" id="PnqBC_YFEDMyUHsKx7en">
    <mxGraphModel dx="1194" dy="824" grid="1" gridSize="10" guides="1" tooltips="1" connect="1" arrows="1" fold="1" page="1" pageScale="1" pageWidth="850" pageHeight="1100" math="1" shadow="0">
      <root>
        <mxCell id="0" />
        <mxCell id="1" parent="0" />
        <mxCell id="Ls_EpS-3-KVm5TTTGEkF-1" value="" style="rounded=1;whiteSpace=wrap;html=1;fillColor=#eeeeee;strokeColor=#36393d;" parent="1" vertex="1">
          <mxGeometry x="150" y="390" width="510" height="230" as="geometry" />
        </mxCell>
        <mxCell id="Ls_EpS-3-KVm5TTTGEkF-2" value="" style="rounded=0;whiteSpace=wrap;html=1;fillColor=#fff2cc;strokeColor=#d6b656;" parent="1" vertex="1">
          <mxGeometry x="340" y="400" width="240" height="210" as="geometry" />
        </mxCell>
        <mxCell id="Ls_EpS-3-KVm5TTTGEkF-3" value="" style="edgeStyle=orthogonalEdgeStyle;rounded=0;orthogonalLoop=1;jettySize=auto;html=1;" parent="1" source="Ls_EpS-3-KVm5TTTGEkF-4" target="Ls_EpS-3-KVm5TTTGEkF-11" edge="1">
          <mxGeometry relative="1" as="geometry" />
        </mxCell>
        <mxCell id="Ls_EpS-3-KVm5TTTGEkF-4" value="GAT" style="rounded=0;whiteSpace=wrap;html=1;fillColor=#dae8fc;strokeColor=#6c8ebf;" parent="1" vertex="1">
          <mxGeometry x="380" y="490" width="40" height="80" as="geometry" />
        </mxCell>
        <mxCell id="Ls_EpS-3-KVm5TTTGEkF-5" value="" style="edgeStyle=orthogonalEdgeStyle;rounded=0;orthogonalLoop=1;jettySize=auto;html=1;" parent="1" source="Ls_EpS-3-KVm5TTTGEkF-6" target="Ls_EpS-3-KVm5TTTGEkF-12" edge="1">
          <mxGeometry relative="1" as="geometry" />
        </mxCell>
        <mxCell id="Ls_EpS-3-KVm5TTTGEkF-6" value="relu" style="ellipse;whiteSpace=wrap;html=1;fillColor=#f8cecc;strokeColor=#b85450;" parent="1" vertex="1">
          <mxGeometry x="520" y="490" width="40" height="80" as="geometry" />
        </mxCell>
        <mxCell id="Ls_EpS-3-KVm5TTTGEkF-7" value="" style="edgeStyle=orthogonalEdgeStyle;rounded=0;orthogonalLoop=1;jettySize=auto;html=1;" parent="1" source="Ls_EpS-3-KVm5TTTGEkF-8" target="Ls_EpS-3-KVm5TTTGEkF-18" edge="1">
          <mxGeometry relative="1" as="geometry" />
        </mxCell>
        <mxCell id="Ls_EpS-3-KVm5TTTGEkF-8" value="GCN" style="rounded=0;whiteSpace=wrap;html=1;fillColor=#dae8fc;strokeColor=#6c8ebf;" parent="1" vertex="1">
          <mxGeometry x="170" y="490" width="40" height="80" as="geometry" />
        </mxCell>
        <mxCell id="Ls_EpS-3-KVm5TTTGEkF-9" value="`\hat{A}`" style="text;html=1;strokeColor=#9673a6;fillColor=#e1d5e7;align=center;verticalAlign=middle;whiteSpace=wrap;rounded=0;" parent="1" vertex="1">
          <mxGeometry x="387.5" y="430" width="25" height="30" as="geometry" />
        </mxCell>
        <mxCell id="Ls_EpS-3-KVm5TTTGEkF-10" value="" style="edgeStyle=orthogonalEdgeStyle;rounded=0;orthogonalLoop=1;jettySize=auto;html=1;" parent="1" source="Ls_EpS-3-KVm5TTTGEkF-11" target="Ls_EpS-3-KVm5TTTGEkF-6" edge="1">
          <mxGeometry relative="1" as="geometry" />
        </mxCell>
        <mxCell id="Ls_EpS-3-KVm5TTTGEkF-11" value="BN" style="rounded=1;whiteSpace=wrap;html=1;fillColor=#d5e8d4;strokeColor=#82b366;" parent="1" vertex="1">
          <mxGeometry x="460" y="490" width="40" height="80" as="geometry" />
        </mxCell>
        <mxCell id="Ls_EpS-3-KVm5TTTGEkF-12" value="GCN" style="rounded=0;whiteSpace=wrap;html=1;fillColor=#dae8fc;strokeColor=#6c8ebf;" parent="1" vertex="1">
          <mxGeometry x="600" y="490" width="40" height="80" as="geometry" />
        </mxCell>
        <mxCell id="Ls_EpS-3-KVm5TTTGEkF-13" value="" style="endArrow=classic;html=1;rounded=0;entryX=0;entryY=0.5;entryDx=0;entryDy=0;" parent="1" target="Ls_EpS-3-KVm5TTTGEkF-9" edge="1">
          <mxGeometry width="50" height="50" relative="1" as="geometry">
            <mxPoint x="360" y="530" as="sourcePoint" />
            <mxPoint x="510" y="570" as="targetPoint" />
            <Array as="points">
              <mxPoint x="360" y="445" />
            </Array>
          </mxGeometry>
        </mxCell>
        <mxCell id="Ls_EpS-3-KVm5TTTGEkF-14" value="" style="endArrow=classic;html=1;rounded=0;exitX=1;exitY=0.5;exitDx=0;exitDy=0;" parent="1" source="Ls_EpS-3-KVm5TTTGEkF-9" edge="1">
          <mxGeometry width="50" height="50" relative="1" as="geometry">
            <mxPoint x="460" y="620" as="sourcePoint" />
            <mxPoint x="440" y="530" as="targetPoint" />
            <Array as="points">
              <mxPoint x="440" y="445" />
            </Array>
          </mxGeometry>
        </mxCell>
        <mxCell id="Ls_EpS-3-KVm5TTTGEkF-15" value="" style="edgeStyle=orthogonalEdgeStyle;rounded=0;orthogonalLoop=1;jettySize=auto;html=1;" parent="1" source="Ls_EpS-3-KVm5TTTGEkF-16" target="Ls_EpS-3-KVm5TTTGEkF-4" edge="1">
          <mxGeometry relative="1" as="geometry" />
        </mxCell>
        <mxCell id="Ls_EpS-3-KVm5TTTGEkF-16" value="relu" style="ellipse;whiteSpace=wrap;html=1;fillColor=#f8cecc;strokeColor=#b85450;" parent="1" vertex="1">
          <mxGeometry x="290" y="490" width="40" height="80" as="geometry" />
        </mxCell>
        <mxCell id="Ls_EpS-3-KVm5TTTGEkF-17" value="" style="edgeStyle=orthogonalEdgeStyle;rounded=0;orthogonalLoop=1;jettySize=auto;html=1;" parent="1" source="Ls_EpS-3-KVm5TTTGEkF-18" target="Ls_EpS-3-KVm5TTTGEkF-16" edge="1">
          <mxGeometry relative="1" as="geometry" />
        </mxCell>
        <mxCell id="Ls_EpS-3-KVm5TTTGEkF-18" value="BN" style="rounded=1;whiteSpace=wrap;html=1;fillColor=#d5e8d4;strokeColor=#82b366;" parent="1" vertex="1">
          <mxGeometry x="230" y="490" width="40" height="80" as="geometry" />
        </mxCell>
        <mxCell id="Ls_EpS-3-KVm5TTTGEkF-19" value="`L_1 \times`" style="text;html=1;strokeColor=none;fillColor=none;align=center;verticalAlign=middle;whiteSpace=wrap;rounded=0;" parent="1" vertex="1">
          <mxGeometry x="350" y="400" width="30" height="30" as="geometry" />
        </mxCell>
        <mxCell id="Ls_EpS-3-KVm5TTTGEkF-20" value="" style="shape=flexArrow;endArrow=classic;html=1;rounded=0;" parent="1" edge="1">
          <mxGeometry width="50" height="50" relative="1" as="geometry">
            <mxPoint x="90" y="529.5" as="sourcePoint" />
            <mxPoint x="150" y="529.5" as="targetPoint" />
          </mxGeometry>
        </mxCell>
        <mxCell id="Ls_EpS-3-KVm5TTTGEkF-21" value="" style="shape=flexArrow;endArrow=classic;html=1;rounded=0;exitX=1.003;exitY=0.609;exitDx=0;exitDy=0;exitPerimeter=0;" parent="1" edge="1">
          <mxGeometry width="50" height="50" relative="1" as="geometry">
            <mxPoint x="660" y="530.0699999999999" as="sourcePoint" />
            <mxPoint x="718.1400000000001" y="529.5" as="targetPoint" />
          </mxGeometry>
        </mxCell>
        <mxCell id="Ls_EpS-3-KVm5TTTGEkF-22" value="&lt;font style=&quot;font-size: 18px;&quot;&gt;输入&lt;/font&gt;" style="text;html=1;align=center;verticalAlign=middle;resizable=0;points=[];autosize=1;strokeColor=none;fillColor=none;" parent="1" vertex="1">
          <mxGeometry x="90" y="480" width="60" height="40" as="geometry" />
        </mxCell>
        <mxCell id="Ls_EpS-3-KVm5TTTGEkF-23" value="&lt;font style=&quot;font-size: 18px;&quot;&gt;输出&lt;/font&gt;" style="text;html=1;align=center;verticalAlign=middle;resizable=0;points=[];autosize=1;strokeColor=none;fillColor=none;" parent="1" vertex="1">
          <mxGeometry x="660" y="480" width="60" height="40" as="geometry" />
        </mxCell>
      </root>
    </mxGraphModel>
  </diagram>
</mxfile>
